<?xml version="1.0" encoding="utf-8"?>
<!-- Generator: Adobe Illustrator 23.0.4, SVG Export Plug-In . SVG Version: 6.00 Build 0)  -->
<svg version="1.1" id="Layer_1" xmlns="http://www.w3.org/2000/svg" xmlns:xlink="http://www.w3.org/1999/xlink" x="0px" y="0px"
	 viewBox="0 0 35 35" style="enable-background:new 0 0 35 35;" xml:space="preserve">
<style type="text/css">
	.st0{fill:#453F57;}
	.st1{clip-path:url(#SVGID_2_);}
	.st2{fill:#FFFFFF;}
	.st3{fill:#EFF4F9;}
</style>
<g transform="translate(-4886 -5075)">
	<circle class="st0" cx="4903.5" cy="5092.5" r="17.5"/>
	<g transform="translate(145.13 64)">
		<g>
			<defs>
				<rect id="SVGID_1_" x="4749.5" y="5020" width="17.6" height="17.6"/>
			</defs>
			<clipPath id="SVGID_2_">
				<use xlink:href="#SVGID_1_"  style="overflow:visible;"/>
			</clipPath>
			<g class="st1">
				<g transform="translate(0 0)">
					<path class="st2" d="M4767,5028.8c0-4.8-3.9-8.8-8.8-8.8l0,0c-4.8,0-8.8,3.9-8.8,8.8l0,0c0,2.2,0.8,4.3,2.3,5.9v1.4
						c0,0.8,0.5,1.5,1.1,1.5h5.8c0.1,0,0.1,0,0.2,0C4763.5,5037.2,4767,5033.4,4767,5028.8"/>
				</g>
				<g transform="translate(0 0)">
					<path class="st3" d="M4752.6,5028.9c0-4,2.5-7.6,6.4-8.9c-0.3,0-0.5,0-0.8,0c-4.8,0-8.8,3.9-8.8,8.8c0,0,0,0,0,0
						c0,2.2,0.8,4.3,2.2,5.9c0,0,0,0,0,0c-0.3,0.4-1.9,2.8,0,2.8h2.2c-1.2,0,1.3-2.1,0.3-3.5
						C4753.1,5032.6,4752.6,5030.8,4752.6,5028.9"/>
				</g>
			</g>
		</g>
	</g>
</g>
</svg>
